#!OML:ASF F:\VICON\USERDATA\INSTALL\rory3\rory3.ASF
:FULLY-SPECIFIED
:DEGREES
2061
root 3.90306 15.9614 -1.18975 382.103 28.0203 360.164
lowerback 27.2898 0.0141065 0.804935
upperback 7.15572 0.703773 3.18717
thorax -7.14636 0.396375 2.82814
lowerneck -18.1516 -5.14624 -12.2544
upperneck 24.7919 -5.76806 8.52487
head 11.7488 -2.66126 4.35713
rclavicle 3.57812e-014 5.56597e-014
rhumerus -5.50427 30.149 -78.7959
rradius 55.6479
rwrist 32.5017
rhand -22.9855 13.8829
rfingers 7.12502
rthumb 3.45712 -376.069
lclavicle 3.57812e-014 5.56597e-014
lhumerus 0.545237 -40.1367 80.046
lradius 41.9264
lwrist -33.4721
lhand -29.0908 26.0188
lfingers 7.12502
lthumb -2.43936 55.9846
rfemur -62.2113 -11.5619 21.2376
rtibia 66.4319
rfoot -20.3456 -0.000421711
rtoes -4.02082
lfemur -59.1252 11.216 -12.3929
ltibia 58.2328
lfoot -14.1202 1.62232
ltoes -24.2184
2062
root 3.89433 16.0189 -1.14144 381.836 27.8918 360.102
lowerback 26.8766 0.00233623 0.887137
upperback 7.0095 0.699614 3.20635
thorax -7.10549 0.39223 2.80078
lowerneck -17.845 -5.28437 -12.257
upperneck 24.3626 -6.06183 8.80311
head 11.5694 -2.76362 4.40574
rclavicle -1.66979e-014 2.38542e-015
rhumerus -5.90552 29.4813 -79.3923
rradius 55.0248
rwrist 32.2506
rhand -22.3284 13.336
rfingers 7.12502
rthumb 4.09163 -376.604
lclavicle -1.66979e-014 2.38542e-015
lhumerus 0.00694277 -40.2257 80.3962
lradius 41.729
lwrist -33.4085
lhand -27.6305 24.9869
lfingers 7.12502
lthumb -1.02907 54.9642
rfemur -61.3764 -11.3194 21.251
rtibia 65.741
rfoot -20.2899 -0.0452421
rtoes -4.00566
lfemur -58.1336 11.0176 -12.0445
ltibia 57.3855
lfoot -13.8807 1.97932
ltoes -24.6875
2063
root 3.88791 16.0747 -1.09464 381.688 27.829 360.135
lowerback 26.4282 -0.0568354 1.0091
upperback 6.84421 0.645446 3.23387
thorax -7.06461 0.364112 2.77541
lowerneck -17.8807 -5.42328 -12.4123
upperneck 24.2421 -6.28386 9.08694
head 11.575 -2.84298 4.50067
rclavicle -3.97569e-014 2.62396e-014
rhumerus -6.28382 28.7457 -79.9249
rradius 54.3969
rwrist 32.1725
rhand -22.1519 12.9384
rfingers 7.12502
rthumb 4.26204 -376.999
lclavicle -3.97569e-014 2.62396e-014
lhumerus -0.350287 -40.2804 80.7515
lradius 41.4738
lwrist -33.1928
lhand -26.222 24.1425
lfingers 7.12502
lthumb 0.331296 54.122
rfemur -60.6433 -11.1974 21.2184
rtibia 65.0609
rfoot -20.2219 -0.0941399
rtoes -3.85678
lfemur -57.2294 10.6921 -11.7701
ltibia 56.5419
lfoot -13.6402 2.39335
ltoes -25.0988
2064
root 3.88228 16.1339 -1.04451 381.618 27.682 360.356
lowerback 25.9413 -0.110522 0.933834
upperback 6.73165 0.540805 3.2179
thorax -6.94353 0.313605 2.8299
lowerneck -18.1895 -5.549 -12.523
upperneck 24.141 -6.46418 9.34899
head 11.6351 -2.8965 4.58448
rclavicle -3.89618e-014 -1.11319e-014
rhumerus -6.60671 27.9281 -80.5088
rradius 53.8251
rwrist 32.38
rhand -22.1802 12.5102
rfingers 7.12502
rthumb 4.23474 -377.427
lclavicle -3.89618e-014 -1.11319e-014
lhumerus -0.597229 -40.1297 81.0698
lradius 41.3135
lwrist -32.8026
lhand -24.8257 23.7299
lfingers 7.12502
lthumb 1.67993 53.7031
rfemur -59.8902 -11.0448 20.968
rtibia 64.377
rfoot -20.1659 -0.191216
rtoes -3.7278
lfemur -56.2689 10.3747 -11.7067
ltibia 55.6822
lfoot -13.4521 2.7715
ltoes -25.1794
2065
root 3.87536 16.1936 -0.991479 381.503 27.4483 360.564
lowerback 25.4734 -0.182017 0.754864
upperback 6.63122 0.385248 3.1704
thorax -6.81482 0.239349 2.92402
lowerneck -18.426 -5.66741 -12.5436
upperneck 24.0972 -6.6519 9.53582
head 11.6981 -2.95559 4.6251
rclavicle 3.49861e-014 -5.00937e-014
rhumerus -6.98268 27.2536 -81.1839
rradius 53.4327
rwrist 32.5201
rhand -22.1651 12.1381
rfingers 7.12502
rthumb 4.24937 -377.799
lclavicle 3.49861e-014 -5.00937e-014
lhumerus -1.13345 -39.3415 81.6111
lradius 41.2019
lwrist -33.1859
lhand -23.3163 23.8307
lfingers 7.12502
lthumb 3.13764 53.7874
rfemur -59.0849 -10.7723 20.6944
rtibia 63.6775
rfoot -20.0742 -0.326498
rtoes -3.68244
lfemur -55.2505 10.1502 -11.6606
ltibia 54.7895
lfoot -13.2024 3.13143
ltoes -25.2882
2066
root 3.86771 16.2551 -0.935866 381.288 27.1951 360.634
lowerback 25.0747 -0.248413 0.662768
upperback 6.47184 0.263298 3.14494
thorax -6.78552 0.180439 2.98259
lowerneck -18.5038 -5.75243 -12.5957
upperneck 24.1512 -6.80511 9.71879
head 11.7642 -3.0063 4.67997
rclavicle -4.85035e-014 2.38542e-014
rhumerus -7.58113 26.8003 -81.8418
rradius 53.2466
rwrist 32.0741
rhand -22.1502 11.7558
rfingers 7.12502
rthumb 4.26372 -378.181
lclavicle -4.85035e-014 2.38542e-014
lhumerus -1.97622 -38.0992 82.5261
lradius 41.0806
lwrist -34.2157
lhand -21.9194 23.4708
lfingers 7.12502
lthumb 4.48657 53.4033
rfemur -58.2218 -10.4133 20.5209
rtibia 62.9616
rfoot -19.9975 -0.356918
rtoes -3.39579
lfemur -54.1575 9.9901 -11.4988
ltibia 53.8652
lfoot -12.9671 3.56844
ltoes -25.9305
2067
root 3.85696 16.3176 -0.879394 380.99 27.0834 360.704
lowerback 24.7032 -0.306178 0.62965
upperback 6.36742 0.176398 3.20722
thorax -6.70959 0.138115 3.09208
lowerneck -18.5859 -5.84213 -12.7938
upperneck 23.9784 -6.93551 10.0052
head 11.7522 -3.04707 4.79604
rclavicle 2.46493e-014 -3.4191e-014
rhumerus -8.21691 26.3163 -82.3056
rradius 53.1571
rwrist 31.3658
rhand -22.7356 11.1979
rfingers 7.12502
rthumb 3.69844 -378.75
lclavicle 2.46493e-014 -3.4191e-014
lhumerus -2.53011 -37.4939 83.2521
lradius 40.9709
lwrist -33.7532
lhand -23.3264 22.8976
lfingers 7.12502
lthumb 3.12788 52.8544
rfemur -57.2402 -10.139 20.3617
rtibia 62.2548
rfoot -19.9464 -0.384188
rtoes -2.633
lfemur -52.9771 9.69095 -11.2575
ltibia 52.9139
lfoot -12.7848 3.92549
ltoes -25.7994
2068
root 3.84345 16.3749 -0.821345 380.731 26.9863 360.831
lowerback 24.5889 -0.288664 0.695281
upperback 5.98674 0.203363 3.0859
thorax -7.0731 0.151041 2.91644
lowerneck -18.1448 -5.92836 -12.4521
upperneck 23.7879 -7.23838 10.1201
head 11.6231 -3.14844 4.7294
rclavicle -1.19271e-014 -2.38542e-015
rhumerus -9.45096 25.2694 -83.2086
rradius 53.0937
rwrist 31.0511
rhand -23.5247 10.6463
rfingers 7.12502
rthumb 2.93642 -379.313
lclavicle -1.19271e-014 -2.38542e-015
lhumerus -3.6191 -37.5529 83.9674
lradius 40.9601
lwrist -32.8229
lhand -20.7302 23.059
lfingers 7.12502
lthumb 5.63483 52.9641
rfemur -56.286 -9.87158 20.1712
rtibia 61.5655
rfoot -19.9321 -0.459358
rtoes -1.91541
lfemur -51.821 9.36349 -11.0592
ltibia 51.9447
lfoot -12.5489 4.28104
ltoes -25.7685
2069
root 3.83237 16.4285 -0.763849 380.505 26.865 361.017
lowerback 24.2789 -0.351075 0.65655
upperback 5.82124 0.102853 3.05216
thorax -7.09336 0.102725 2.92911
lowerneck -18.1454 -6.03951 -12.3929
upperneck 23.6893 -7.42866 10.1832
head 11.6118 -3.2214 4.7083
rclavicle -1.82882e-014 -4.77083e-015
rhumerus -10.1248 24.6336 -83.7508
rradius 53.0648
rwrist 30.5731
rhand -23.7812 10.1596
rfingers 7.12502
rthumb 2.68869 -379.803
lclavicle -1.82882e-014 -4.77083e-015
lhumerus -4.34927 -36.9894 84.5187
lradius 40.9895
lwrist -32.4888
lhand -22.4425 22.8352
lfingers 7.12502
lthumb 3.98149 52.7778
rfemur -55.3514 -9.65726 19.9587
rtibia 60.8769
rfoot -19.9635 -0.582194
rtoes -1.66015
lfemur -50.6496 8.98124 -10.9084
ltibia 50.9507
lfoot -12.2763 4.64378
ltoes -25.6625
2070
root 3.8215 16.4896 -0.706738 380.222 26.7294 361.261
lowerback 23.9983 -0.447812 0.490289
upperback 5.74344 -0.0661829 3.08116
thorax -7.02735 0.0234392 3.10292
lowerneck -18.3072 -6.09727 -12.4252
upperneck 23.6047 -7.46827 10.1396
head 11.6166 -3.24388 4.68548
rclavicle 2.70347e-014 5.56597e-015
rhumerus -10.6686 24.1977 -84.1867
rradius 53.1235
rwrist 29.8128
rhand -23.9023 9.69848
rfingers 7.12502
rthumb 2.57173 -380.266
lclavicle 2.70347e-014 5.56597e-015
lhumerus -4.93097 -36.4351 84.9784
lradius 41.051
lwrist -31.6158
lhand -21.497 22.9458
lfingers 7.12502
lthumb 4.89451 52.8693
rfemur -54.298 -9.45966 19.6747
rtibia 60.1643
rfoot -20.0456 -0.649662
rtoes -1.53332
lfemur -49.369 8.55504 -10.8187
ltibia 49.9397
lfoot -12.0054 5.04021
ltoes -25.6582
